<mxfile host="app.diagrams.net" agent="Mozilla/5.0 (X11; Linux x86_64) AppleWebKit/537.36 (KHTML, like Gecko) Chrome/134.0.0.0 Safari/537.36" version="26.1.1">
  <diagram name="Page-1" id="itUb8B_-wZjXP-e3GCll">
    <mxGraphModel dx="1120" dy="481" grid="1" gridSize="10" guides="1" tooltips="1" connect="1" arrows="1" fold="1" page="1" pageScale="1" pageWidth="850" pageHeight="1100" math="0" shadow="0">
      <root>
        <mxCell id="0" />
        <mxCell id="1" parent="0" />
        <mxCell id="xFOFcCz3bXLKs6IDTkx5-2" value="" style="swimlane;startSize=0;fillColor=none;" vertex="1" parent="1">
          <mxGeometry x="210" y="100" width="1050" height="380" as="geometry" />
        </mxCell>
        <mxCell id="xFOFcCz3bXLKs6IDTkx5-12" style="edgeStyle=orthogonalEdgeStyle;rounded=0;orthogonalLoop=1;jettySize=auto;html=1;" edge="1" parent="xFOFcCz3bXLKs6IDTkx5-2" source="xFOFcCz3bXLKs6IDTkx5-3" target="xFOFcCz3bXLKs6IDTkx5-40">
          <mxGeometry relative="1" as="geometry">
            <mxPoint x="140" y="190" as="targetPoint" />
          </mxGeometry>
        </mxCell>
        <mxCell id="xFOFcCz3bXLKs6IDTkx5-3" value="&lt;font style=&quot;color: rgb(255, 255, 255);&quot;&gt;A&lt;/font&gt;" style="ellipse;whiteSpace=wrap;html=1;aspect=fixed;fillColor=#3399FF;strokeColor=#FFFFFF;" vertex="1" parent="xFOFcCz3bXLKs6IDTkx5-2">
          <mxGeometry x="40" y="165" width="50" height="50" as="geometry" />
        </mxCell>
        <mxCell id="xFOFcCz3bXLKs6IDTkx5-13" style="edgeStyle=orthogonalEdgeStyle;rounded=0;orthogonalLoop=1;jettySize=auto;html=1;" edge="1" parent="xFOFcCz3bXLKs6IDTkx5-2" source="xFOFcCz3bXLKs6IDTkx5-40" target="xFOFcCz3bXLKs6IDTkx5-41">
          <mxGeometry relative="1" as="geometry">
            <mxPoint x="190" y="190" as="sourcePoint" />
            <mxPoint x="240" y="190" as="targetPoint" />
          </mxGeometry>
        </mxCell>
        <mxCell id="xFOFcCz3bXLKs6IDTkx5-14" style="edgeStyle=orthogonalEdgeStyle;rounded=0;orthogonalLoop=1;jettySize=auto;html=1;" edge="1" parent="xFOFcCz3bXLKs6IDTkx5-2" source="xFOFcCz3bXLKs6IDTkx5-41" target="xFOFcCz3bXLKs6IDTkx5-42">
          <mxGeometry relative="1" as="geometry">
            <mxPoint x="290" y="190" as="sourcePoint" />
            <mxPoint x="340" y="190" as="targetPoint" />
          </mxGeometry>
        </mxCell>
        <mxCell id="xFOFcCz3bXLKs6IDTkx5-15" style="edgeStyle=orthogonalEdgeStyle;rounded=0;orthogonalLoop=1;jettySize=auto;html=1;" edge="1" parent="xFOFcCz3bXLKs6IDTkx5-2" source="xFOFcCz3bXLKs6IDTkx5-42" target="xFOFcCz3bXLKs6IDTkx5-43">
          <mxGeometry relative="1" as="geometry">
            <mxPoint x="390" y="190" as="sourcePoint" />
            <mxPoint x="440" y="190" as="targetPoint" />
          </mxGeometry>
        </mxCell>
        <mxCell id="xFOFcCz3bXLKs6IDTkx5-21" style="edgeStyle=orthogonalEdgeStyle;rounded=0;orthogonalLoop=1;jettySize=auto;html=1;" edge="1" parent="xFOFcCz3bXLKs6IDTkx5-2" source="xFOFcCz3bXLKs6IDTkx5-43" target="xFOFcCz3bXLKs6IDTkx5-44">
          <mxGeometry relative="1" as="geometry">
            <mxPoint x="490" y="190" as="sourcePoint" />
            <mxPoint x="540" y="190" as="targetPoint" />
          </mxGeometry>
        </mxCell>
        <mxCell id="xFOFcCz3bXLKs6IDTkx5-16" value="H = 4" style="text;html=1;align=center;verticalAlign=middle;whiteSpace=wrap;rounded=0;" vertex="1" parent="xFOFcCz3bXLKs6IDTkx5-2">
          <mxGeometry x="70" y="150" width="60" height="30" as="geometry" />
        </mxCell>
        <mxCell id="xFOFcCz3bXLKs6IDTkx5-17" value="H = 3" style="text;html=1;align=center;verticalAlign=middle;whiteSpace=wrap;rounded=0;" vertex="1" parent="xFOFcCz3bXLKs6IDTkx5-2">
          <mxGeometry x="170" y="150" width="60" height="30" as="geometry" />
        </mxCell>
        <mxCell id="xFOFcCz3bXLKs6IDTkx5-18" value="H = 5" style="text;html=1;align=center;verticalAlign=middle;whiteSpace=wrap;rounded=0;" vertex="1" parent="xFOFcCz3bXLKs6IDTkx5-2">
          <mxGeometry x="270" y="150" width="60" height="30" as="geometry" />
        </mxCell>
        <mxCell id="xFOFcCz3bXLKs6IDTkx5-19" value="H = 3" style="text;html=1;align=center;verticalAlign=middle;whiteSpace=wrap;rounded=0;" vertex="1" parent="xFOFcCz3bXLKs6IDTkx5-2">
          <mxGeometry x="370" y="150" width="60" height="30" as="geometry" />
        </mxCell>
        <mxCell id="xFOFcCz3bXLKs6IDTkx5-28" style="edgeStyle=orthogonalEdgeStyle;rounded=0;orthogonalLoop=1;jettySize=auto;html=1;exitX=1;exitY=0;exitDx=0;exitDy=0;" edge="1" parent="xFOFcCz3bXLKs6IDTkx5-2" source="xFOFcCz3bXLKs6IDTkx5-44" target="xFOFcCz3bXLKs6IDTkx5-49">
          <mxGeometry relative="1" as="geometry">
            <mxPoint x="582.6776695296637" y="172.32233047033628" as="sourcePoint" />
            <mxPoint x="640" y="140" as="targetPoint" />
          </mxGeometry>
        </mxCell>
        <mxCell id="xFOFcCz3bXLKs6IDTkx5-22" value="H = 7" style="text;html=1;align=center;verticalAlign=middle;whiteSpace=wrap;rounded=0;" vertex="1" parent="xFOFcCz3bXLKs6IDTkx5-2">
          <mxGeometry x="470" y="150" width="60" height="30" as="geometry" />
        </mxCell>
        <mxCell id="xFOFcCz3bXLKs6IDTkx5-30" style="edgeStyle=orthogonalEdgeStyle;rounded=0;orthogonalLoop=1;jettySize=auto;html=1;entryX=0;entryY=0;entryDx=0;entryDy=0;" edge="1" parent="xFOFcCz3bXLKs6IDTkx5-2" source="xFOFcCz3bXLKs6IDTkx5-49" target="xFOFcCz3bXLKs6IDTkx5-47">
          <mxGeometry relative="1" as="geometry">
            <mxPoint x="690" y="140" as="sourcePoint" />
            <mxPoint x="747.322330470336" y="172.32233047033606" as="targetPoint" />
          </mxGeometry>
        </mxCell>
        <mxCell id="xFOFcCz3bXLKs6IDTkx5-31" style="edgeStyle=orthogonalEdgeStyle;rounded=0;orthogonalLoop=1;jettySize=auto;html=1;entryX=0;entryY=1;entryDx=0;entryDy=0;" edge="1" parent="xFOFcCz3bXLKs6IDTkx5-2" source="xFOFcCz3bXLKs6IDTkx5-48" target="xFOFcCz3bXLKs6IDTkx5-47">
          <mxGeometry relative="1" as="geometry">
            <mxPoint x="690" y="240" as="sourcePoint" />
            <mxPoint x="747.322330470336" y="207.67766952966394" as="targetPoint" />
          </mxGeometry>
        </mxCell>
        <mxCell id="xFOFcCz3bXLKs6IDTkx5-32" style="edgeStyle=orthogonalEdgeStyle;rounded=0;orthogonalLoop=1;jettySize=auto;html=1;" edge="1" parent="xFOFcCz3bXLKs6IDTkx5-2" source="xFOFcCz3bXLKs6IDTkx5-47" target="xFOFcCz3bXLKs6IDTkx5-46">
          <mxGeometry relative="1" as="geometry">
            <mxPoint x="790" y="190" as="sourcePoint" />
            <mxPoint x="840" y="190" as="targetPoint" />
          </mxGeometry>
        </mxCell>
        <mxCell id="xFOFcCz3bXLKs6IDTkx5-33" style="edgeStyle=orthogonalEdgeStyle;rounded=0;orthogonalLoop=1;jettySize=auto;html=1;" edge="1" parent="xFOFcCz3bXLKs6IDTkx5-2" source="xFOFcCz3bXLKs6IDTkx5-46" target="xFOFcCz3bXLKs6IDTkx5-45">
          <mxGeometry relative="1" as="geometry">
            <mxPoint x="890" y="190" as="sourcePoint" />
            <mxPoint x="940" y="190" as="targetPoint" />
          </mxGeometry>
        </mxCell>
        <mxCell id="xFOFcCz3bXLKs6IDTkx5-34" value="H = 7" style="text;html=1;align=center;verticalAlign=middle;whiteSpace=wrap;rounded=0;" vertex="1" parent="xFOFcCz3bXLKs6IDTkx5-2">
          <mxGeometry x="580" y="175" width="60" height="30" as="geometry" />
        </mxCell>
        <mxCell id="xFOFcCz3bXLKs6IDTkx5-35" value="H = 18" style="text;html=1;align=center;verticalAlign=middle;whiteSpace=wrap;rounded=0;" vertex="1" parent="xFOFcCz3bXLKs6IDTkx5-2">
          <mxGeometry x="670" y="100" width="60" height="30" as="geometry" />
        </mxCell>
        <mxCell id="xFOFcCz3bXLKs6IDTkx5-36" value="H = 24" style="text;html=1;align=center;verticalAlign=middle;whiteSpace=wrap;rounded=0;" vertex="1" parent="xFOFcCz3bXLKs6IDTkx5-2">
          <mxGeometry x="670" y="250" width="60" height="30" as="geometry" />
        </mxCell>
        <mxCell id="xFOFcCz3bXLKs6IDTkx5-37" value="H = 10" style="text;html=1;align=center;verticalAlign=middle;whiteSpace=wrap;rounded=0;" vertex="1" parent="xFOFcCz3bXLKs6IDTkx5-2">
          <mxGeometry x="770" y="150" width="60" height="30" as="geometry" />
        </mxCell>
        <mxCell id="xFOFcCz3bXLKs6IDTkx5-38" value="H = 4" style="text;html=1;align=center;verticalAlign=middle;whiteSpace=wrap;rounded=0;" vertex="1" parent="xFOFcCz3bXLKs6IDTkx5-2">
          <mxGeometry x="870" y="150" width="60" height="30" as="geometry" />
        </mxCell>
        <mxCell id="xFOFcCz3bXLKs6IDTkx5-39" value="H = 8" style="text;html=1;align=center;verticalAlign=middle;whiteSpace=wrap;rounded=0;" vertex="1" parent="xFOFcCz3bXLKs6IDTkx5-2">
          <mxGeometry x="970" y="150" width="60" height="30" as="geometry" />
        </mxCell>
        <mxCell id="xFOFcCz3bXLKs6IDTkx5-40" value="&lt;font style=&quot;color: rgb(255, 255, 255);&quot;&gt;B&lt;/font&gt;" style="ellipse;whiteSpace=wrap;html=1;aspect=fixed;fillColor=#3399FF;strokeColor=#FFFFFF;" vertex="1" parent="xFOFcCz3bXLKs6IDTkx5-2">
          <mxGeometry x="140" y="165" width="50" height="50" as="geometry" />
        </mxCell>
        <mxCell id="xFOFcCz3bXLKs6IDTkx5-41" value="&lt;font style=&quot;color: rgb(255, 255, 255);&quot;&gt;C&lt;/font&gt;" style="ellipse;whiteSpace=wrap;html=1;aspect=fixed;fillColor=#3399FF;strokeColor=#FFFFFF;" vertex="1" parent="xFOFcCz3bXLKs6IDTkx5-2">
          <mxGeometry x="240" y="165" width="50" height="50" as="geometry" />
        </mxCell>
        <mxCell id="xFOFcCz3bXLKs6IDTkx5-42" value="&lt;font style=&quot;color: rgb(255, 255, 255);&quot;&gt;D&lt;/font&gt;" style="ellipse;whiteSpace=wrap;html=1;aspect=fixed;fillColor=#3399FF;strokeColor=#FFFFFF;" vertex="1" parent="xFOFcCz3bXLKs6IDTkx5-2">
          <mxGeometry x="340" y="165" width="50" height="50" as="geometry" />
        </mxCell>
        <mxCell id="xFOFcCz3bXLKs6IDTkx5-43" value="&lt;font style=&quot;color: rgb(255, 255, 255);&quot;&gt;E&lt;/font&gt;" style="ellipse;whiteSpace=wrap;html=1;aspect=fixed;fillColor=#3399FF;strokeColor=#FFFFFF;" vertex="1" parent="xFOFcCz3bXLKs6IDTkx5-2">
          <mxGeometry x="440" y="165" width="50" height="50" as="geometry" />
        </mxCell>
        <mxCell id="xFOFcCz3bXLKs6IDTkx5-50" style="edgeStyle=orthogonalEdgeStyle;rounded=0;orthogonalLoop=1;jettySize=auto;html=1;entryX=0;entryY=0.5;entryDx=0;entryDy=0;exitX=1;exitY=1;exitDx=0;exitDy=0;" edge="1" parent="xFOFcCz3bXLKs6IDTkx5-2" source="xFOFcCz3bXLKs6IDTkx5-44" target="xFOFcCz3bXLKs6IDTkx5-48">
          <mxGeometry relative="1" as="geometry" />
        </mxCell>
        <mxCell id="xFOFcCz3bXLKs6IDTkx5-44" value="&lt;font style=&quot;color: rgb(255, 255, 255);&quot;&gt;F&lt;/font&gt;" style="ellipse;whiteSpace=wrap;html=1;aspect=fixed;fillColor=#3399FF;strokeColor=#FFFFFF;" vertex="1" parent="xFOFcCz3bXLKs6IDTkx5-2">
          <mxGeometry x="540" y="165" width="50" height="50" as="geometry" />
        </mxCell>
        <mxCell id="xFOFcCz3bXLKs6IDTkx5-49" value="&lt;font style=&quot;color: rgb(255, 255, 255);&quot;&gt;G&lt;/font&gt;" style="ellipse;whiteSpace=wrap;html=1;aspect=fixed;fillColor=#3399FF;strokeColor=#FFFFFF;" vertex="1" parent="xFOFcCz3bXLKs6IDTkx5-2">
          <mxGeometry x="640" y="115" width="50" height="50" as="geometry" />
        </mxCell>
        <mxCell id="xFOFcCz3bXLKs6IDTkx5-48" value="&lt;font color=&quot;#ffffff&quot;&gt;H&lt;/font&gt;" style="ellipse;whiteSpace=wrap;html=1;aspect=fixed;fillColor=#3399FF;strokeColor=#FFFFFF;" vertex="1" parent="xFOFcCz3bXLKs6IDTkx5-2">
          <mxGeometry x="640" y="215" width="50" height="50" as="geometry" />
        </mxCell>
        <mxCell id="xFOFcCz3bXLKs6IDTkx5-47" value="&lt;font style=&quot;color: rgb(255, 255, 255);&quot;&gt;I&lt;/font&gt;" style="ellipse;whiteSpace=wrap;html=1;aspect=fixed;fillColor=#3399FF;strokeColor=#FFFFFF;" vertex="1" parent="xFOFcCz3bXLKs6IDTkx5-2">
          <mxGeometry x="740" y="165" width="50" height="50" as="geometry" />
        </mxCell>
        <mxCell id="xFOFcCz3bXLKs6IDTkx5-46" value="&lt;font style=&quot;color: rgb(255, 255, 255);&quot;&gt;J&lt;/font&gt;" style="ellipse;whiteSpace=wrap;html=1;aspect=fixed;fillColor=#3399FF;strokeColor=#FFFFFF;" vertex="1" parent="xFOFcCz3bXLKs6IDTkx5-2">
          <mxGeometry x="840" y="165" width="50" height="50" as="geometry" />
        </mxCell>
        <mxCell id="xFOFcCz3bXLKs6IDTkx5-45" value="&lt;font color=&quot;#ffffff&quot;&gt;K&lt;/font&gt;" style="ellipse;whiteSpace=wrap;html=1;aspect=fixed;fillColor=#3399FF;strokeColor=#FFFFFF;" vertex="1" parent="xFOFcCz3bXLKs6IDTkx5-2">
          <mxGeometry x="940" y="165" width="50" height="50" as="geometry" />
        </mxCell>
      </root>
    </mxGraphModel>
  </diagram>
</mxfile>
